<svg xmlns="http://www.w3.org/2000/svg" xmlns:xlink="http://www.w3.org/1999/xlink" width="21.1" height="27.419" viewBox="0 0 21.1 27.419"><defs><style>.a{fill:#f53361;}.b{clip-path:url(#a);}</style><clipPath id="a"><rect class="a" width="21.1" height="27.419"/></clipPath></defs><g class="b"><path class="a" d="M0,13.7Q0,7.456,0,1.21A1.068,1.068,0,0,1,1.186,0q9.337,0,18.673,0a1.11,1.11,0,0,1,1.106.554,1.153,1.153,0,0,1-.129,1.265c-1.154,1.72-2.291,3.45-3.455,5.163a.608.608,0,0,0-.009.809c1.177,1.73,2.331,3.476,3.491,5.218A1.088,1.088,0,0,1,20.3,14.75a2.267,2.267,0,0,1-.523.033q-8.564,0-17.128,0c-.5,0-.5,0-.5.5q0,5.506,0,11.013A1.07,1.07,0,0,1,.813,27.387,1.047,1.047,0,0,1,0,26.293Q0,23.565,0,20.836,0,17.269,0,13.7M10.089,2.156c-2.51,0-5.02,0-7.53-.006-.309,0-.414.076-.413.4q.017,4.85,0,9.7c0,.306.09.389.391.388q7.546-.013,15.092-.009c.092,0,.221.053.269-.055s-.065-.175-.118-.255c-.922-1.387-1.838-2.779-2.773-4.157a1.244,1.244,0,0,1,.007-1.548c.93-1.369,1.84-2.751,2.756-4.13.057-.086.185-.174.121-.281s-.2-.046-.307-.046q-3.748,0-7.5,0" transform="translate(0 -0.001)"/><path class="a" d="M80.782,52.183a1.054,1.054,0,0,1,.8.334c.25.246.508.484.742.745.2.22.294.208.428-.065.739-1.5,1.5-3,2.241-4.5a1.115,1.115,0,0,1,.941-.718,1.067,1.067,0,0,1,1.08,1.544c-.275.62-.6,1.221-.9,1.828q-1.073,2.146-2.15,4.29a1.133,1.133,0,0,1-2.026.322c-.645-.641-1.291-1.282-1.926-1.932a1.048,1.048,0,0,1-.218-1.217,1.007,1.007,0,0,1,.989-.63" transform="translate(-74.437 -44.813)"/></g></svg>